<?xml version="1.0" encoding="UTF-8" standalone="no"?>
<!-- Created with Inkscape (http://www.inkscape.org/) -->

<svg
   version="1.1"
   id="svg1"
   width="6500"
   height="3300"
   viewBox="0 0 6500.0001 3300"
   sodipodi:docname="vi_black.svg"
   inkscape:version="1.4.2 (f4327f4, 2025-05-13)"
   xmlns:inkscape="http://www.inkscape.org/namespaces/inkscape"
   xmlns:sodipodi="http://sodipodi.sourceforge.net/DTD/sodipodi-0.dtd"
   xmlns="http://www.w3.org/2000/svg"
   xmlns:svg="http://www.w3.org/2000/svg">
  <defs
     id="defs1" />
  <sodipodi:namedview
     id="namedview1"
     pagecolor="#ffffff"
     bordercolor="#000000"
     borderopacity="0.25"
     inkscape:showpageshadow="2"
     inkscape:pageopacity="0.0"
     inkscape:pagecheckerboard="0"
     inkscape:deskcolor="#d1d1d1"
     inkscape:zoom="0.13577508"
     inkscape:cx="4146.5635"
     inkscape:cy="1612.9617"
     inkscape:window-width="1920"
     inkscape:window-height="1001"
     inkscape:window-x="-9"
     inkscape:window-y="-9"
     inkscape:window-maximized="1"
     inkscape:current-layer="group-R5">
    <inkscape:page
       x="0"
       y="0"
       inkscape:label="1"
       id="page1"
       width="6500"
       height="3300"
       margin="0"
       bleed="0" />
  </sodipodi:namedview>
  <g
     id="g1"
     inkscape:groupmode="layer"
     inkscape:label="1">
    <g
       id="group-R5">
      <path
         id="path2"
         d="m 3132.8864,1391.5836 c -5.509,-8.9142 -15.6777,-13.8222 -28.6343,-13.8222 h -8.8497 c -18.7936,0 -31.4338,8.8795 -38.6081,27.0202 l -173.8354,429.1342 -174.4833,-429.03 c -7.2193,-18.2622 -19.8626,-27.1244 -38.6497,-27.1244 h -8.8503 c -12.9561,0 -23.1257,4.908 -28.6333,13.8222 -3.181,5.1336 -7.4382,16.2158 -0.3877,32.362 l 202.7921,500.6911 c 7.2143,18.2621 19.8594,27.1245 38.648,27.1245 h 18.4373 c 18.7902,0 31.4353,-8.8624 38.6081,-27.0204 l 202.6994,-500.4656 c 7.1843,-16.4758 2.926,-27.558 -0.2531,-32.6916"
         style="fill:#1a1a1a;fill-opacity:1;fill-rule:nonzero;stroke:none;stroke-width:0.169947" />
      <path
         id="path3"
         d="m 3261.3574,1659.1161 c 44.8564,0 83.383,29.5351 98.2096,73.4995 h -196.4193 c 14.83,-43.9644 53.3532,-73.4995 98.2097,-73.4995 z m 0,-76.2743 c -99.4987,0 -180.447,84.304 -180.447,187.9282 0,102.6878 82.6352,189.4544 180.447,189.4544 56.5756,0 108.7697,-26.4479 143.2727,-72.6322 8.1536,-11.1515 10.0555,-23.3783 5.2193,-33.5412 -5.0511,-10.6314 -16.7237,-16.9615 -31.2174,-16.9615 h -9.5875 c -14.9399,0 -26.3609,5.255 -38.0252,17.395 -18.9367,18.9905 -43.6773,29.4483 -69.6619,29.4483 -44.6068,0 -83.9643,-31.3907 -98.4429,-76.5692 h 243.0079 c 31.2256,0 35.8852,-15.7127 35.8852,-25.0779 V 1770.77 c 0,-103.6242 -80.9482,-187.9282 -180.4502,-187.9282"
         style="fill:#1a1a1a;fill-opacity:1;fill-rule:nonzero;stroke:none;stroke-width:0.169947" />
      <path
         id="path4"
         d="m 3534.9829,1447.6535 c -25.8497,0 -47.6876,22.0427 -47.6876,48.1267 0,27.8527 20.9452,49.6701 47.6876,49.6701 25.8881,0 46.9498,-22.2857 46.9498,-49.6701 0,-25.633 -21.9378,-48.1267 -46.9498,-48.1267"
         style="fill:#1a1a1a;fill-opacity:1;fill-rule:nonzero;stroke:none;stroke-width:0.169947" />
      <path
         id="path5"
         d="m 3537.9339,1588.218 h -4.4249 c -22.1342,0 -35.8868,14.3254 -35.8868,37.3742 v 288.8123 c 0,23.0487 13.7526,37.3567 35.8868,37.3567 h 4.4249 c 22.1359,0 35.887,-14.308 35.887,-37.3567 v -288.8123 c 0,-23.0488 -13.7511,-37.3742 -35.887,-37.3742"
         style="fill:#1a1a1a;fill-opacity:1;fill-rule:nonzero;stroke:none;stroke-width:0.169947" />
      <path
         id="path6"
         d="m 3938.1403,1900.6514 -142.152,-171.3657 94.8624,-95.9586 c 12.3202,-12.2269 16.9201,-25.6676 12.6151,-36.8711 -1.7469,-4.5612 -7.7356,-15.1578 -25.5151,-15.1578 h -17.6993 c -15.0466,0 -26.9473,5.0988 -37.3325,15.9208 l -99.3722,100.6933 v -282.7769 c 0,-23.0488 -13.7508,-37.374 -35.8868,-37.374 h -2.2133 c -22.1359,0 -35.8868,14.3252 -35.8868,37.374 v 499.2691 c 0,23.0487 13.7509,37.3567 35.8868,37.3567 h 2.2133 c 22.136,0 35.8868,-14.308 35.8868,-37.3567 v -111.3766 l 18.6804,-18.9905 124.1361,149.3749 c 10.3136,12.6951 22.3025,18.3489 38.8795,18.3489 h 10.327 c 14.7999,0 25.918,-5.9488 30.5044,-16.3371 4.5896,-10.3884 1.7103,-23.0488 -7.9338,-34.7727"
         style="fill:#1a1a1a;fill-opacity:1;fill-rule:nonzero;stroke:none;stroke-width:0.169947" />
      <path
         id="path7"
         d="m 4036.5282,1588.218 h -4.4265 c -22.1344,0 -35.8853,14.3254 -35.8853,37.3742 v 288.8123 c 0,23.0487 13.7509,37.3567 35.8853,37.3567 h 4.4265 c 22.1343,0 35.8851,-14.308 35.8851,-37.3567 v -288.8123 c 0,-23.0488 -13.7508,-37.3742 -35.8851,-37.3742"
         style="fill:#1a1a1a;fill-opacity:1;fill-rule:nonzero;stroke:none;stroke-width:0.169947" />
      <path
         id="path8"
         d="m 4033.5771,1447.6535 c -25.8513,0 -47.6892,22.0427 -47.6892,48.1267 0,27.8527 20.9469,49.6701 47.6892,49.6701 25.8882,0 46.9499,-22.2857 46.9499,-49.6701 0,-25.633 -21.9395,-48.1267 -46.9499,-48.1267"
         style="fill:#1a1a1a;fill-opacity:1;fill-rule:nonzero;stroke:none;stroke-width:0.169947" />
      <path
         id="path9"
         d="m 4312.3771,1659.1161 c 58.9038,0 108.6648,51.1271 108.6648,111.6539 0,59.2262 -51.7928,113.1628 -108.6648,113.1628 -56.6724,0 -102.7862,-50.7628 -102.7862,-113.1628 0,-62.608 45.148,-111.6539 102.7862,-111.6539 z m 149.7159,-70.8981 h -2.2149 c -22.0328,0 -35.772,14.2039 -35.8886,37.0793 -30.8924,-27.2631 -69.712,-42.4555 -110.147,-42.4555 -99.4886,0 -180.4452,84.304 -180.4452,187.9282 0,102.6878 82.6384,189.4544 180.4452,189.4544 40.3684,0 79.1879,-15.5738 110.1636,-43.5306 0.2998,22.615 13.9891,36.6108 35.872,36.6108 h 2.2149 c 22.1326,0 35.8886,-14.3252 35.8886,-37.374 v -290.3384 c 0,-23.0488 -13.756,-37.3742 -35.8886,-37.3742"
         style="fill:#1a1a1a;fill-opacity:1;fill-rule:nonzero;stroke:none;stroke-width:0.169947" />
      <path
         id="path10"
         d="m 4744.5882,1582.8418 c -36.4547,0 -68.8793,10.7352 -95.2087,31.3041 -3.8803,-16.2505 -16.4038,-25.9279 -34.6062,-25.9279 h -2.2149 c -22.1326,0 -35.8884,14.3254 -35.8884,37.3742 v 288.8123 c 0,23.0487 13.7558,37.3567 35.8884,37.3567 h 2.2149 c 22.1327,0 35.8885,-14.308 35.8885,-37.3567 v -155.1676 c 0,-33.9401 8.4601,-59.7637 25.1471,-76.7599 15.9041,-16.1982 39.0525,-24.0546 68.7793,-23.3609 47.8125,0 71.061,28.4771 71.061,87.0615 v 168.2269 c 0,23.0487 13.7393,37.3567 35.8886,37.3567 h 2.1982 c 22.1326,0 35.8886,-14.308 35.8886,-37.3567 v -168.2269 c 0,-112.9546 -44.7317,-163.3358 -145.0364,-163.3358"
         style="fill:#1a1a1a;fill-opacity:1;fill-rule:nonzero;stroke:none;stroke-width:0.169947" />
      <path
         id="path11"
         d="m 5243.9136,1817.8735 h -7.3776 c -20.001,0 -31.0423,11.2382 -38.4199,21.0196 l -0.3164,0.451 c -19.5346,28.3384 -49.5112,44.5887 -82.2189,44.5887 -56.5224,0 -104.2516,-51.8207 -104.2516,-113.1628 0,-62.608 45.7808,-111.6539 104.2516,-111.6539 32.8908,0 62.8841,15.7475 82.3022,43.2012 l 0.2331,0.3122 c 7.3776,9.7815 18.4189,21.0197 38.4199,21.0197 h 5.8954 c 13.989,0 25.1137,-5.6712 30.5095,-15.5219 3.0308,-5.5151 6.7613,-17.1348 -2.2483,-33.0211 -32.6244,-56.9021 -92.0612,-92.2644 -155.1118,-92.2644 -99.5054,0 -180.4585,84.304 -180.4585,187.9282 0,102.6878 82.6351,189.4544 180.4585,189.4544 64.716,0 124.7688,-36.0212 156.8105,-94.2415 8.3601,-15.9382 4.3965,-27.4886 1.2822,-32.9516 -5.4957,-9.6253 -16.3371,-15.1578 -29.7599,-15.1578"
         style="fill:#1a1a1a;fill-opacity:1;fill-rule:nonzero;stroke:none;stroke-width:0.169947" />
      <path
         id="path12"
         d="m 5085.2212,1500.5494 0.3331,0.4162 c 1.0992,1.3702 2.0651,2.6189 2.9643,3.7635 6.1286,7.9084 11.9407,15.3659 28.5277,15.3659 15.1382,0 20.6506,-5.7925 27.3119,-14.6375 0.9993,-1.3354 2.115,-2.827 3.464,-4.4919 l 51.2099,-68.782 0.066,-0.069 c 7.644,-10.4057 10.7915,-20.4299 9.3759,-29.7951 -0.7994,-5.3417 -3.5639,-13.0247 -12.1571,-19.216 -14.9716,-10.7873 -32.0749,-7.4055 -45.6477,8.9143 l -33.6236,39.2471 -34.5062,-40.201 c -13.7392,-15.4006 -31.5586,-17.5338 -48.8784,-5.8793 l -0.3663,0.2601 c -5.3292,3.9022 -8.6599,9.3653 -9.6259,15.8342 -1.3655,9.1745 2.1151,19.268 10.6584,30.9052 l 50.8934,68.3658"
         style="fill:#1a1a1a;fill-opacity:1;fill-rule:nonzero;stroke:none;stroke-width:0.169947" />
      <path
         id="path13"
         d="m 5379.6073,1447.6535 c -25.8466,0 -47.6794,22.0427 -47.6794,48.1267 0,27.8527 20.9503,49.6701 47.6794,49.6701 25.8963,0 46.9632,-22.2857 46.9632,-49.6701 0,-25.633 -21.9496,-48.1267 -46.9632,-48.1267"
         style="fill:#1a1a1a;fill-opacity:1;fill-rule:nonzero;stroke:none;stroke-width:0.169947" />
      <path
         id="path14"
         d="m 5382.5716,1588.218 h -4.43 c -22.1326,0 -35.8884,14.3254 -35.8884,37.3742 v 288.8123 c 0,23.0487 13.7558,37.3567 35.8884,37.3567 h 4.43 c 22.1326,0 35.8719,-14.308 35.8719,-37.3567 v -288.8123 c 0,-23.0488 -13.7393,-37.3742 -35.8719,-37.3742"
         style="fill:#1a1a1a;fill-opacity:1;fill-rule:nonzero;stroke:none;stroke-width:0.169947" />
      <path
         id="path15"
         d="m 5652.51,1883.9328 c -56.5057,0 -104.2517,-51.8207 -104.2517,-113.1628 0,-62.608 45.7975,-111.6539 104.2517,-111.6539 58.4542,0 104.2517,49.0459 104.2517,111.6539 0,61.3421 -47.7459,113.1628 -104.2517,113.1628 z m 0,-301.091 c -99.5054,0 -180.4419,84.304 -180.4419,187.9282 0,102.6878 82.6352,189.4544 180.4419,189.4544 97.8068,0 180.442,-86.7666 180.442,-189.4544 0,-103.6242 -80.9366,-187.9282 -180.442,-187.9282"
         style="fill:#1a1a1a;fill-opacity:1;fill-rule:nonzero;stroke:none;stroke-width:0.169947" />
      <path
         id="path16"
         d="m 6011.0956,1726.7189 c -56.7387,-11.4984 -64.566,-25.1299 -64.566,-38.1372 0,-18.106 23.2651,-31.7722 54.1076,-31.7722 22.4324,0 40.4349,6.3996 49.4613,17.551 7.9437,10.5446 17.0033,22.4072 36.821,22.4072 12.8234,0 23.4483,-5.1856 29.1772,-14.2386 5.4124,-8.5327 5.8788,-19.3721 1.2656,-30.5757 -18.1857,-43.2706 -61.8181,-69.1116 -116.7251,-69.1116 -85.9326,0 -124.4025,53.1041 -124.4025,105.7399 0,76.4131 65.1989,99.7914 121.9878,111.6194 63.1837,13.1633 69.7785,23.1354 69.7785,42.7677 0,23.6732 -27.6949,40.2009 -67.3638,40.2009 -26.6957,0 -51.0267,-11.2903 -62.068,-28.876 -7.8106,-12.2094 -17.0866,-24.124 -36.7712,-24.124 -13.0731,0 -23.6648,4.8908 -29.81,13.7702 -5.5457,8.0125 -6.6948,18.3836 -3.2641,29.0669 16.0375,51.89 66.5811,84.1306 131.9133,84.1306 84.4671,0 136.9261,-43.7389 136.9261,-114.1686 0,-62.6948 -37.7872,-97.4501 -126.4677,-116.2499"
         style="fill:#1a1a1a;fill-opacity:1;fill-rule:nonzero;stroke:none;stroke-width:0.169947" />
      <path
         id="path17"
         d="m 2726.2268,2167.6636 h -7.0512 c -23.3801,0 -37.3391,14.5334 -37.3391,38.883 v 530.0874 c 0,24.3495 13.959,38.8829 37.3391,38.8829 h 7.0512 c 23.3816,0 37.3424,-14.5334 37.3424,-38.8829 v -530.0874 c 0,-24.3496 -13.9608,-38.883 -37.3424,-38.883"
         style="fill:#1a1a1a;fill-opacity:1;fill-rule:nonzero;stroke:none;stroke-width:0.169947" />
      <path
         id="path18"
         d="m 3025.3557,2692.843 h -79.3379 v -442.5055 h 79.3379 c 78.67,0 130.7491,16.0769 163.8865,50.572 33.1407,34.5126 48.5752,88.744 48.5752,170.6721 0,81.9281 -15.4345,136.1596 -48.5752,170.672 -33.1374,34.5125 -85.2165,50.5894 -163.8865,50.5894 z m 0,-525.1794 H 2901.626 c -23.3801,0 -37.3407,14.5334 -37.3407,38.883 v 530.0874 c 0,24.3495 13.9606,38.8829 37.3407,38.8829 h 123.7297 c 107.2392,0 179.3061,-22.6499 226.7989,-71.2622 47.5843,-48.699 69.7469,-122.632 69.7469,-232.6731 0,-110.0238 -22.1626,-183.9568 -69.7469,-232.673 -47.4928,-48.6125 -119.5597,-71.245 -226.7989,-71.245"
         style="fill:#1a1a1a;fill-opacity:1;fill-rule:nonzero;stroke:none;stroke-width:0.169947" />
      <path
         id="path19"
         d="m 3568.803,2120.6642 c 26.6076,0 49.0899,-24.1587 49.0899,-52.7573 0,-26.7948 -22.942,-50.2946 -49.0899,-50.2946 -27.0338,0 -49.8709,23.0315 -49.8709,50.2946 0,29.1014 22.3709,52.7573 49.8709,52.7573"
         style="fill:#1a1a1a;fill-opacity:1;fill-rule:nonzero;stroke:none;stroke-width:0.169947" />
      <path
         id="path20"
         d="m 3702.7148,2167.6636 h -274.0819 c -23.3867,0 -37.3473,14.5334 -37.3473,38.883 v 530.0874 c 0,24.3495 13.9606,38.8829 37.3473,38.8829 h 274.0819 c 23.3817,0 37.3424,-14.5334 37.3424,-38.8829 v -4.908 c 0,-24.3495 -13.9607,-38.883 -37.3424,-38.883 h -229.6917 v -222.3194 h 214.8116 c 23.3834,0 37.3441,-14.5506 37.3441,-38.9001 v -4.8908 c 0,-24.3495 -13.9607,-38.883 -37.3441,-38.883 h -214.8116 v -137.5122 h 229.6917 c 23.3817,0 37.3424,-14.5507 37.3424,-38.9002 v -4.8907 c 0,-24.3496 -13.9607,-38.883 -37.3424,-38.883"
         style="fill:#1a1a1a;fill-opacity:1;fill-rule:nonzero;stroke:none;stroke-width:0.169947" />
      <path
         id="path21"
         d="m 3939.7157,2167.6636 h -7.0461 c -23.3834,0 -37.3441,14.5334 -37.3441,38.883 v 495.8351 c 0,86.7839 -44.2153,141.293 -121.3149,149.5486 l -0.5646,0.087 c -30.2247,4.7172 -34.7394,26.8125 -34.7394,39.5589 v 7.3362 c 0,15.3314 5.8387,24.3499 10.7348,29.2058 4.5532,4.5261 12.6002,9.729 25.5085,9.729 0.8027,0 1.6253,-0.018 2.468,-0.052 l 0.4597,-0.035 c 61.7132,-5.4976 112.4684,-29.83 146.7783,-70.3428 34.7727,-41.0681 52.4039,-96.6002 52.4039,-165.0358 v -495.8352 c 0,-24.3495 -13.9607,-38.8829 -37.3441,-38.8829"
         style="fill:#1a1a1a;fill-opacity:1;fill-rule:nonzero;stroke:none;stroke-width:0.169947" />
      <path
         id="path22"
         d="m 4346.1339,2696.9187 c -123.0869,0 -219.5096,-100.7626 -219.5096,-229.4127 0,-122.8923 98.4712,-222.8918 219.5096,-222.8918 121.0385,0 219.5113,99.9995 219.5113,222.8918 0,128.6501 -96.4245,229.4127 -219.5113,229.4127 z m 0,-537.4062 c -80.5702,0 -156.7272,32.4313 -214.4503,91.3107 -57.4866,58.6538 -89.1435,135.6044 -89.1435,216.6828 0,173.4296 136.1916,314.5322 303.5938,314.5322 167.4021,0 303.5954,-141.1026 303.5954,-314.5322 0,-81.0784 -31.6586,-158.029 -89.1468,-216.6828 -57.7215,-58.8794 -133.8784,-91.3107 -214.4486,-91.3107"
         style="fill:#1a1a1a;fill-opacity:1;fill-rule:nonzero;stroke:none;stroke-width:0.169947" />
      <path
         id="path23"
         d="m 4889.3415,2410.4477 c -69.0959,-22.5805 -92.411,-43.5829 -92.411,-83.2116 0,-40.4437 31.0923,-83.4369 88.7305,-83.4369 29.0772,0 57.5383,16.7706 72.31,42.4208 6.5616,12.1401 17.0866,26.0838 40.4683,26.0838 h 12.5235 c 13.3729,0 24.0978,-4.9947 30.2097,-14.0651 5.862,-8.7236 6.7447,-20.2392 2.3814,-32.7088 -24.231,-64.8973 -86.2157,-106.8499 -157.8929,-106.8499 -100.1215,0 -172.8146,70.8979 -172.8146,168.5561 0,99.7567 67.647,141.9174 169.1841,174.5049 94.9423,30.6276 113.511,59.677 113.511,99.5139 0,56.8155 -45.1812,96.4788 -109.8805,96.4788 -46.014,0 -86.3989,-25.997 -102.9527,-66.25 -4.8628,-12.9379 -14.2554,-29.9687 -39.5689,-29.9687 h -9.3927 c -16.9034,0 -25.7465,7.2148 -30.1929,13.2674 -4.2301,5.7925 -8.4268,15.9208 -4.3633,31.4254 l 0.1,0.3642 c 23.8146,81.5119 98.7227,136.2812 186.3706,136.2812 112.3952,0 193.9646,-76.3787 193.9646,-181.5983 0,-118.3137 -98.2063,-160.5264 -190.2841,-190.8072"
         style="fill:#1a1a1a;fill-opacity:1;fill-rule:nonzero;stroke:none;stroke-width:0.169947" />
      <path
         id="path24"
         d="m 1959.6655,2036.7722 c -0.1733,0.7333 -0.28,1.4667 -0.4,2.2 l -9.12,33.9067 c -169.0533,109.0133 -373.44,214.64 -586.9493,300.5333 -252.2853,101.4933 -495.11204,168.8933 -715.19874,199.9733 521.60944,-735.9733 448.99474,-1761.74666 359.32004,-2195.53329 111.8027,108.69333 322.1854,345.25333 525.3747,632.09339 322.2,454.8133 473.8266,819.4799 426.9733,1026.8266 z m 395.5067,-259.9466 c -20.0267,-10.64 -47.3467,-1.2534 -69.6134,23.9599 -56.8533,64.4267 -136.12,132.8667 -231.36,201.3467 26.4534,-290.8533 -215.08,-708.04 -430.0399,-1015.69329 -254.9387,-364.84004 -548.1747,-683.45337 -638.04541,-742.5067 -28.06801,-18.42666 -52.18001,-20.56 -71.72803,-6.30666 -6.5426,4.77333 -27.1186,23.11999 -17.2306,58.65333 53.30132,191.54666 105.55464,563.92 77.40663,983.00002 -23.55601,350.7867 -114.25063,851.8666 -411.10533,1260.4533 -1.2507,1.72 -2.504,3.44 -3.7613,5.16 -2.2587,3.08 -4.5294,6.16 -6.8107,9.24 -0.968,1.3067 -1.9373,2.6 -2.9093,3.9067 -0.424,0.56 -0.7774,1.16 -1.1694,1.7466 l -24.8013,27.4667 c -129.132,10.4533 -248.7866,7.1333 -355.8798,-10.52 -25.6589,-4.2133 -32.7371,9.24 -34.2897,13.4667 -4.6823,12.68 3.9245,28.3066 21.4141,38.88 0.548,0.32 1.1276,0.6 1.7313,0.8133 243.8175,86.3333 615.8054,72.92 884.91744,46.4667 236.868,-23.28 447.9947,-61.6667 519.368,-78.6267 -43.28,67.8667 -202.4693,300.6533 -296.5333,403.9467 l -0.023,-0.04 -51.776,46.9866 h 0.14 c -3.0026,2.3467 -5.124,4 -5.7613,4.56 -14.0893,12.4134 -19.62,28.88 -12.5467,40.44 2.6427,4.32 8.816,10.6934 22.2707,10.6934 11.7173,0 28.9547,-4.84 54.1827,-20.0934 385.3266,-245.9066 684.4999,-520.5466 889.2199,-816.3066 151.3067,-218.5734 200.7067,-379.8934 212.24,-424.12 8.2667,-31.7067 1.72,-56.7334 -17.5066,-66.9733"
         style="fill:#1a1a1a;fill-opacity:1;fill-rule:nonzero;stroke:none;stroke-width:0.133333"
         inkscape:transform-center-x="2923.9533"
         inkscape:transform-center-y="44.190731" />
    </g>
  </g>
</svg>
